<svg width="187" height="36" viewBox="0 0 187 36" fill="none" xmlns="http://www.w3.org/2000/svg">
<path d="M66.5753 14.1061V11.8101H58.3899V23.6203H66.5753V21.2248H61.7074V18.6078H65.7572V16.3118H61.7074V14.1061H66.5753Z" fill="#4B286D"/>
<path d="M81.0205 21.2881H75.9041V11.8101H72.5459V23.6203H81.0205V21.2881Z" fill="#4B286D"/>
<path d="M108.049 16.3118C105.785 15.801 104.994 15.7423 104.994 14.8428C104.994 14.0067 106.115 13.7445 106.761 13.7445C107.81 13.7445 109.039 13.9886 110.291 14.6349L111.204 12.4609C109.92 11.7558 108.266 11.4666 106.675 11.4666C103.552 11.4666 101.455 12.7321 101.369 15.2044C101.278 17.4553 103.109 18.3005 104.795 18.6485C106.417 18.983 108.063 19.2723 108.099 20.235C108.13 21.1254 107.33 21.505 105.821 21.505C104.424 21.505 103.122 21.0576 101.794 20.5016L101.021 22.861C102.544 23.5118 104.094 23.8689 105.694 23.8689C107.913 23.8689 109.532 23.5254 110.725 22.4045C111.552 21.6361 111.823 20.7096 111.823 19.8237C111.819 17.9525 110.657 16.8994 108.049 16.3118Z" fill="#4B286D"/>
<path d="M53.6306 14.1378V11.8101H43.33V14.1378H46.8102V23.6203H50.1458V14.1378H53.6306Z" fill="#4B286D"/>
<path d="M92.4693 11.8101V19.3129C92.4693 19.9005 92.4693 20.0632 92.4332 20.2937C92.3292 21.0079 91.6331 21.4237 90.5258 21.4372C89.7077 21.4237 89.1066 21.1841 88.8263 20.7548C88.6862 20.5333 88.6184 20.1401 88.6184 19.5073V11.8101H85.1382V19.9502C85.1382 21.0802 85.2873 21.5864 85.7981 22.2282C86.6388 23.2813 88.2749 23.8327 90.5348 23.8327C90.5574 23.8327 90.5845 23.8327 90.6071 23.8327C90.6207 23.8327 90.6388 23.8327 90.6569 23.8327C93.6761 23.8327 95.2354 22.6531 95.6874 21.5502C95.9134 21.0169 95.9315 20.7638 95.9315 19.6836V11.8101H92.4693Z" fill="#4B286D"/>
<path d="M44.9028 8.57393L25.3862 12.461V13.8214L25.4495 13.8033C38.3445 10.6711 44.9028 8.78636 44.957 8.7728C45.0293 8.75472 45.0564 8.69596 45.0474 8.65076C45.0338 8.60105 44.9796 8.56037 44.9028 8.57393Z" fill="#4B286D"/>
<path d="M28.523 9.66326C28.8258 9.46891 28.9117 9.59094 28.8213 9.80789C28.6767 10.1559 28.0168 12.2712 23.1038 16.3029C21.8201 17.3515 20.9116 17.9435 19.063 19.0373C22.0868 14.8023 26.4981 10.974 28.523 9.66326ZM29.0337 8.20336C28.0846 8.2576 26.3264 9.66326 25.3637 10.4994C21.5218 13.8215 18.6698 16.8769 16.5907 20.0724C12.2607 22.391 6.74656 24.773 1.26402 26.6351L1.13295 26.6803L0.079834 29.5188L0.680969 29.2837C4.16574 27.9549 9.98274 25.46 15.2574 22.6893C14.9591 23.4803 14.8099 24.208 14.8099 24.8724C14.8099 25.3696 14.8913 25.8261 15.0585 26.2464C15.3884 27.0781 16.0438 27.7109 16.9478 28.0724C18.2992 28.6103 20.1388 28.6239 22.2405 27.9866C27.6055 26.3594 33.9739 21.365 35.3615 20.3707L35.4112 20.339C35.4654 20.2984 35.47 20.2396 35.4474 20.1989C35.4157 20.1537 35.3524 20.1402 35.3027 20.1718L35.2349 20.2125C33.7479 21.1029 26.5207 25.3922 21.8201 26.6532C19.4291 27.295 17.6031 26.9425 16.9161 25.9798C16.6766 25.6498 16.5636 25.234 16.5636 24.7504C16.5636 23.8057 17.0065 22.599 17.8698 21.2611C18.6608 20.8091 19.3975 20.3707 20.0619 19.9549C24.645 17.3786 29.9287 12.3706 30.1501 9.31523C30.1501 9.29263 30.1501 9.27003 30.1501 9.24744C30.1501 8.98529 30.0371 8.7141 29.8338 8.51071C29.6213 8.29376 29.3366 8.18528 29.0337 8.20336Z" fill="#66CC00"/>
<path d="M25.3185 12.4746L4.78499 16.8905L3.9895 19.0238L25.3818 13.8215L25.4179 13.8125V12.4565L25.3185 12.4746Z" fill="#4B286D"/>
<path d="M130.107 18.5855C130.446 19.0872 130.613 19.6522 130.613 20.2714C130.613 20.9448 130.464 21.5324 130.175 22.0386C129.881 22.5403 129.438 22.9335 128.846 23.2093C128.254 23.485 127.526 23.6251 126.663 23.6251H121.339V11.8103H126.433C127.26 11.8103 127.951 11.9504 128.507 12.2261C129.059 12.5018 129.47 12.8725 129.737 13.329C130.003 13.79 130.134 14.3052 130.134 14.8793C130.134 15.4533 129.999 15.9595 129.728 16.3889C129.456 16.8182 129.072 17.1753 128.575 17.451C129.262 17.7041 129.773 18.0838 130.107 18.5855ZM123.12 13.3335V16.868H126.32C127.007 16.868 127.522 16.7098 127.87 16.3889C128.218 16.068 128.394 15.616 128.394 15.0284C128.394 14.5086 128.218 14.0973 127.865 13.7945C127.513 13.4917 126.998 13.338 126.324 13.338H123.12V13.3335ZM128.25 21.6047C128.629 21.2793 128.824 20.8228 128.824 20.2352C128.824 19.5934 128.629 19.1188 128.245 18.807C127.856 18.4951 127.3 18.3414 126.568 18.3414H123.12V22.0883H126.568C127.309 22.0929 127.87 21.9302 128.25 21.6047Z" fill="#4B286D"/>
<path d="M139.142 15.0601V23.6206H137.551V22.3415C137.262 22.7844 136.887 23.1415 136.421 23.4127C135.956 23.6839 135.436 23.8194 134.862 23.8194C134.243 23.8194 133.709 23.7019 133.262 23.4714C132.815 23.2409 132.466 22.8974 132.227 22.4409C131.987 21.9844 131.861 21.442 131.861 20.8002V15.0601H133.52V20.5652C133.52 21.7584 134.121 22.355 135.328 22.355C135.694 22.355 136.037 22.2646 136.363 22.0884C136.688 21.9121 136.955 21.6364 137.167 21.2612C137.38 20.8861 137.483 20.4251 137.483 19.8827V15.0601H139.142Z" fill="#4B286D"/>
<path d="M140.435 20.8995H142.094C142.139 21.2973 142.238 21.6137 142.392 21.8532C142.546 22.0928 142.767 22.2645 143.056 22.3685C143.346 22.4724 143.725 22.5267 144.2 22.5267C144.851 22.5267 145.33 22.4227 145.633 22.2193C145.936 22.0159 146.089 21.7176 146.089 21.3334C146.089 21.1029 146.035 20.9086 145.922 20.7549C145.814 20.6012 145.628 20.4702 145.366 20.3662C145.108 20.2623 144.738 20.1628 144.263 20.0769L143.386 19.9097C142.469 19.7425 141.786 19.4532 141.339 19.0283C140.891 18.608 140.665 18.0475 140.665 17.3515C140.665 16.8453 140.797 16.4023 141.054 16.0317C141.316 15.6611 141.691 15.3718 142.184 15.1684C142.677 14.965 143.269 14.8611 143.969 14.8611C145.163 14.8611 146.058 15.1052 146.659 15.5978C147.26 16.0905 147.567 16.8001 147.59 17.7312H145.981C145.949 17.1436 145.764 16.7368 145.434 16.5018C145.104 16.2667 144.616 16.1537 143.974 16.1537C143.445 16.1537 143.034 16.2532 142.745 16.4521C142.455 16.6509 142.315 16.9312 142.315 17.2973C142.315 17.6408 142.446 17.8984 142.704 18.0747C142.962 18.2509 143.364 18.3956 143.906 18.504L144.801 18.6532C145.511 18.7843 146.08 18.9605 146.51 19.1775C146.939 19.3945 147.26 19.6656 147.463 20.0001C147.667 20.3301 147.771 20.7368 147.771 21.2114C147.771 21.7628 147.626 22.2374 147.341 22.6306C147.052 23.0239 146.641 23.3222 146.107 23.5256C145.569 23.7289 144.932 23.8329 144.191 23.8329C141.795 23.8374 140.543 22.8566 140.435 20.8995Z" fill="#4B286D"/>
<path d="M149.325 13.7991C149.172 13.7087 149.045 13.5912 148.95 13.433C148.855 13.2793 148.81 13.1075 148.81 12.9177C148.81 12.7414 148.855 12.5742 148.941 12.4205C149.032 12.2669 149.149 12.1403 149.307 12.0454C149.461 11.9505 149.633 11.9053 149.823 11.9053C149.999 11.9053 150.166 11.9505 150.32 12.0363C150.473 12.1267 150.6 12.2443 150.695 12.4025C150.79 12.5561 150.835 12.7279 150.835 12.9177C150.835 13.094 150.79 13.2612 150.704 13.4149C150.613 13.5686 150.496 13.6951 150.338 13.79C150.184 13.8849 150.012 13.9301 149.823 13.9301C149.646 13.9347 149.479 13.8895 149.325 13.7991ZM148.995 15.0601H150.654V23.6206H148.995V15.0601Z" fill="#4B286D"/>
<path d="M158.998 15.643C159.527 16.1628 159.793 16.9086 159.793 17.8803V23.6205H158.134V18.1108C158.134 16.9176 157.533 16.321 156.327 16.321C155.974 16.321 155.631 16.4114 155.296 16.5967C154.966 16.7775 154.695 17.0532 154.482 17.4238C154.27 17.7944 154.166 18.2509 154.166 18.7933V23.6205H152.507V15.06H154.098V16.3391C154.397 15.8871 154.776 15.5255 155.233 15.2588C155.689 14.9922 156.209 14.8611 156.783 14.8611C157.732 14.8611 158.464 15.1232 158.998 15.643Z" fill="#4B286D"/>
<path d="M169.398 19.8871H162.944C163.02 20.7368 163.274 21.3741 163.698 21.7945C164.123 22.2148 164.693 22.4227 165.398 22.4227C165.94 22.4227 166.392 22.2962 166.749 22.0431C167.106 21.79 167.364 21.4419 167.522 20.999H169.199C169.054 21.564 168.81 22.0566 168.471 22.477C168.128 22.8973 167.694 23.2272 167.17 23.4623C166.645 23.7018 166.044 23.8193 165.371 23.8193C164.562 23.8193 163.852 23.6386 163.233 23.2724C162.614 22.9063 162.135 22.3866 161.791 21.7131C161.448 21.0397 161.276 20.2487 161.276 19.3402C161.276 18.4543 161.443 17.6724 161.782 16.9944C162.121 16.3165 162.596 15.7876 163.21 15.417C163.825 15.0464 164.535 14.8611 165.344 14.8611C166.184 14.8611 166.912 15.0554 167.527 15.4487C168.141 15.8419 168.607 16.3843 168.928 17.0758C169.249 17.7673 169.407 18.5447 169.407 19.408V19.8871H169.398ZM163.739 16.8453C163.319 17.2385 163.061 17.817 162.962 18.5764H167.689C167.635 18.1244 167.509 17.7221 167.314 17.3741C167.12 17.0261 166.853 16.7504 166.519 16.5515C166.18 16.3526 165.787 16.2532 165.335 16.2532C164.693 16.2532 164.159 16.4521 163.739 16.8453Z" fill="#4B286D"/>
<path d="M170.243 20.8995H171.902C171.947 21.2973 172.046 21.6137 172.2 21.8532C172.354 22.0928 172.575 22.2645 172.865 22.3685C173.154 22.4724 173.533 22.5267 174.008 22.5267C174.659 22.5267 175.138 22.4227 175.441 22.2193C175.744 22.0159 175.897 21.7176 175.897 21.3334C175.897 21.1029 175.843 20.9086 175.73 20.7549C175.622 20.6012 175.436 20.4702 175.174 20.3662C174.917 20.2623 174.546 20.1628 174.071 20.0769L173.194 19.9097C172.277 19.7425 171.594 19.4532 171.147 19.0283C170.7 18.608 170.474 18.0475 170.474 17.3515C170.474 16.8453 170.605 16.4023 170.862 16.0317C171.124 15.6611 171.5 15.3718 171.992 15.1684C172.485 14.965 173.077 14.8611 173.778 14.8611C174.971 14.8611 175.866 15.1052 176.467 15.5978C177.068 16.0905 177.375 16.8001 177.398 17.7312H175.789C175.757 17.1436 175.572 16.7368 175.242 16.5018C174.912 16.2667 174.424 16.1537 173.782 16.1537C173.253 16.1537 172.842 16.2532 172.553 16.4521C172.263 16.6509 172.123 16.9312 172.123 17.2973C172.123 17.6408 172.254 17.8984 172.512 18.0747C172.77 18.2509 173.172 18.3956 173.714 18.504L174.609 18.6532C175.319 18.7843 175.888 18.9605 176.318 19.1775C176.747 19.3945 177.068 19.6656 177.271 20.0001C177.475 20.3301 177.579 20.7368 177.579 21.2114C177.579 21.7628 177.434 22.2374 177.149 22.6306C176.86 23.0239 176.449 23.3222 175.915 23.5256C175.378 23.7289 174.74 23.8329 173.999 23.8329C171.604 23.8374 170.352 22.8566 170.243 20.8995Z" fill="#4B286D"/>
<path d="M178.419 20.8995H180.078C180.123 21.2973 180.223 21.6137 180.377 21.8532C180.53 22.0928 180.752 22.2645 181.041 22.3685C181.33 22.4724 181.71 22.5267 182.184 22.5267C182.835 22.5267 183.314 22.4227 183.617 22.2193C183.92 22.0159 184.074 21.7176 184.074 21.3334C184.074 21.1029 184.019 20.9086 183.906 20.7549C183.798 20.6012 183.613 20.4702 183.351 20.3662C183.093 20.2623 182.722 20.1628 182.248 20.0769L181.371 19.9097C180.453 19.7425 179.771 19.4532 179.323 19.0283C178.876 18.608 178.65 18.0475 178.65 17.3515C178.65 16.8453 178.781 16.4023 179.039 16.0317C179.301 15.6611 179.676 15.3718 180.169 15.1684C180.661 14.965 181.253 14.8611 181.954 14.8611C183.147 14.8611 184.042 15.1052 184.643 15.5978C185.244 16.0905 185.552 16.8001 185.574 17.7312H183.965C183.934 17.1436 183.748 16.7368 183.418 16.5018C183.088 16.2667 182.6 16.1537 181.958 16.1537C181.43 16.1537 181.018 16.2532 180.729 16.4521C180.44 16.6509 180.3 16.9312 180.3 17.2973C180.3 17.6408 180.431 17.8984 180.688 18.0747C180.946 18.2509 181.348 18.3956 181.891 18.504L182.786 18.6532C183.495 18.7843 184.065 18.9605 184.494 19.1775C184.923 19.3945 185.244 19.6656 185.448 20.0001C185.651 20.3301 185.755 20.7368 185.755 21.2114C185.755 21.7628 185.61 22.2374 185.326 22.6306C185.036 23.0239 184.625 23.3222 184.092 23.5256C183.554 23.7289 182.917 23.8329 182.175 23.8329C179.78 23.8374 178.532 22.8566 178.419 20.8995Z" fill="#4B286D"/>
</svg>
